<svg fill="#4BBFB4" height="64px" width="64px" version="1.1" id="Capa_1" xmlns="http://www.w3.org/2000/svg" xmlns:xlink="http://www.w3.org/1999/xlink" viewBox="0 0 512.002 512.002" xml:space="preserve"><g id="SVGRepo_bgCarrier" stroke-width="0"></g><g id="SVGRepo_tracerCarrier" stroke-linecap="round" stroke-linejoin="round"></g><g id="SVGRepo_iconCarrier"> <g> <path d="M480.001,0h-352c-17.674,0-32,14.326-32,32v32h288c35.346,0,64,28.654,64,64v192h32c17.674,0,32-14.326,32-32V32 C512.001,14.326,497.675,0,480.001,0z"></path> <path d="M384.001,96h-352c-17.674,0-32,14.326-32,32v256.002c0,17.672,14.326,32,32,32h16v73.438 c0,12.461,10.101,22.563,22.56,22.563h0.097c5.982,0,11.722-2.379,15.952-6.609l89.39-89.391h208.002c17.674,0,32-14.328,32-32V128 C416.001,110.326,401.675,96,384.001,96z"></path> </g> </g></svg>